<?xml version="1.0" encoding="UTF-8" standalone="no"?>
<!DOCTYPE svg PUBLIC "-//W3C//DTD SVG 1.1//EN" "http://www.w3.org/Graphics/SVG/1.1/DTD/svg11.dtd">
<svg width="100%" height="100%" viewBox="0 0 32 32" version="1.1" xmlns="http://www.w3.org/2000/svg" xmlns:xlink="http://www.w3.org/1999/xlink" xml:space="preserve" xmlns:serif="http://www.serif.com/" style="fill-rule:evenodd;clip-rule:evenodd;stroke-linejoin:round;stroke-miterlimit:2;">
    <g transform="matrix(1.27276,0,0,1.36713,-0.499513,-0.643147)">
        <ellipse cx="12.964" cy="12.174" rx="12.571" ry="11.703" style="fill:rgb(237,237,237);"/>
        <g transform="matrix(0.785694,0,0,0.731459,-5.40799,7.67862)">
            <path d="M25.16,10.551L21.923,10.551C21.914,10.086 21.91,9.802 21.91,9.701C21.91,8.651 22.084,7.788 22.431,7.111C22.778,6.434 23.472,5.672 24.513,4.826C25.554,3.979 26.176,3.425 26.379,3.162C26.692,2.748 26.849,2.291 26.849,1.791C26.849,1.097 26.571,0.503 26.017,0.008C25.463,-0.487 24.716,-0.735 23.776,-0.735C22.871,-0.735 22.113,-0.477 21.504,0.039C20.895,0.556 20.476,1.343 20.247,2.401L16.972,1.994C17.065,0.48 17.71,-0.807 18.908,-1.865C20.105,-2.923 21.677,-3.452 23.624,-3.452C25.672,-3.452 27.301,-2.916 28.512,-1.846C29.722,-0.775 30.327,0.471 30.327,1.893C30.327,2.68 30.105,3.425 29.661,4.127C29.216,4.83 28.266,5.786 26.811,6.996C26.057,7.623 25.59,8.126 25.408,8.507C25.226,8.888 25.143,9.569 25.16,10.551ZM21.923,15.35L21.923,11.783L25.49,11.783L25.49,15.35L21.923,15.35Z" style="fill:rgb(102,36,16);fill-rule:nonzero;"/>
        </g>
    </g>
</svg>
