<?xml version="1.0" encoding="UTF-8" standalone="no"?>
<!DOCTYPE svg PUBLIC "-//W3C//DTD SVG 1.1//EN" "http://www.w3.org/Graphics/SVG/1.1/DTD/svg11.dtd">
<svg width="100%" height="100%" viewBox="0 0 32 32" version="1.1" xmlns="http://www.w3.org/2000/svg" xmlns:xlink="http://www.w3.org/1999/xlink" xml:space="preserve" xmlns:serif="http://www.serif.com/" style="fill-rule:evenodd;clip-rule:evenodd;stroke-linejoin:round;stroke-miterlimit:2;">
    <g transform="matrix(0.474777,0,0,0.474777,4.24133,-3.55271e-15)">
        <path d="M43.1,0L6.8,0L1.2,20.9C-2.2,33.6 1.9,47.2 11.8,55.8L25,67.4L38.2,55.8C41.2,53.2 43.7,50.1 45.6,46.6C44.6,46.6 43.6,46.6 42.6,46.4C41.9,46.3 41.2,46 40.5,45.7C39.3,45 38.3,44.2 37.4,43.1C36.4,41.9 35.2,40.4 33.8,38.5C33.3,37.8 32.7,37.1 32.2,36.4C31.7,35.7 31.2,35 30.7,34.3C30.2,33.6 29.8,33.1 29.4,32.5C29,31.9 28.7,31.5 28.4,31.2C28.2,31 28,30.9 27.8,30.9L21.8,30.8C21.6,30.8 21.5,30.9 21.5,31.2L21.5,38.7C21.5,40.2 21.6,41.6 21.7,43C21.7,43.6 21.9,44.2 22.2,44.8C22.5,45.3 23.1,45.7 23.7,45.7C24.1,45.8 24.5,45.8 24.9,45.8L25.9,45.8C26.2,45.8 26.3,45.9 26.3,46.1C26.3,46.4 26,46.5 25.5,46.5L19.4,46.5C18.7,46.5 18.1,46.6 17.6,46.6L16.1,46.7L14.8,46.7C14.3,46.7 14,46.6 14,46.3C14,46.1 14.1,46 14.4,46L15.1,46C15.3,46 15.6,45.9 15.8,45.8C16.3,45.7 16.7,45.4 16.8,44.9C17,44.3 17.1,43.7 17.2,43.1C17.3,41.7 17.4,40.2 17.4,38.8L17.4,22.1L21.3,22.5L21.3,28.1C21.3,28.3 21.4,28.6 21.6,28.7C22.2,29 22.9,29.2 23.6,29.3C24.6,29.4 25.7,29.5 26.7,29.5C27.3,29.5 27.9,29.4 28.6,29.3C29.3,29.2 29.9,28.9 30.4,28.5C31.4,27.8 32.1,26.8 32.5,25.7C33.1,24.2 33.4,22.6 33.3,21C33.4,18.4 32.6,15.8 31,13.8C29.4,12 27.1,11.1 24.8,11.2C24.1,11.2 23.5,11.2 22.8,11.3C22.4,11.3 21.9,11.4 21.5,11.5C21.2,11.6 21.1,11.8 21.1,12.1L21.1,19.2C22.1,19.2 23,19.2 23.6,19.1C24.2,19.1 24.8,19 25.4,18.9C25.9,18.8 26.2,18.6 26.3,18.3C26.4,18.2 26.4,18 26.5,17.9L26.5,17.5C26.5,17.4 26.6,17.3 26.8,17.3C27.1,17.3 27.2,17.5 27.2,17.8L27.2,18.6C27.2,18.9 27.2,19.2 27.1,19.5C27,19.8 27.1,20.1 27,20.5L27,24C27,24.3 26.9,24.4 26.6,24.4C26.4,24.4 26.3,24.3 26.3,24.2L26.3,23.6C26.3,23.4 26.2,23.1 26.2,22.9C26.1,22.5 25.8,22.1 25.3,22.1C24.7,22 24.1,21.9 23.5,21.8C22.8,21.8 22,21.7 21,21.7L17.1,21.7C15.6,21.7 14.4,21.8 13.5,21.8C12.9,21.8 12.3,21.9 11.7,22.1C11.3,22.2 10.9,22.5 10.8,22.9C10.7,23.1 10.7,23.4 10.7,23.6L10.7,24.2C10.7,24.3 10.6,24.4 10.4,24.4C10.1,24.4 10,24.3 10,24L10,20.5C10,20.1 9.9,19.8 9.9,19.5C9.9,19.2 9.9,18.9 9.8,18.6C9.7,18.3 9.8,18 9.8,17.8C9.8,17.5 9.9,17.3 10.2,17.3C10.4,17.3 10.5,17.4 10.5,17.5C10.5,17.6 10.5,17.8 10.6,17.9C10.6,18 10.7,18.2 10.8,18.3C10.9,18.6 11.2,18.8 11.7,18.9C12.3,19 12.9,19.1 13.5,19.1C14.4,19.2 15.6,19.2 17.1,19.2L17.1,14.5C17.1,14 17.1,13.6 17,13.2C17,12.5 16.8,11.9 16.5,11.3C16.1,10.8 15.5,10.5 14.9,10.4C14.6,10.3 14.4,10.3 14.1,10.3L13.2,10.3C12.9,10.3 12.8,10.2 12.8,10C12.8,9.7 13.1,9.6 13.6,9.6L20.1,9.6C20.6,9.6 21.1,9.6 21.7,9.5C22.3,9.4 22.9,9.5 23.5,9.4C24.1,9.3 24.6,9.4 25,9.4C26.6,9.4 28.1,9.5 29.7,9.8C31.3,10 32.7,10.6 34,11.6C34.4,11.9 34.7,12.2 35,12.6C35.4,13 35.8,13.5 36.1,14C36.5,14.6 36.8,15.2 37,15.9C37.3,16.7 37.4,17.5 37.4,18.3C37.4,20.2 36.9,22.1 36.1,23.8C34.9,26 33.4,28 31.5,29.6L37.1,36.6C38.8,38.7 40.3,40.5 41.8,42.1C42.8,43.2 44,44.2 45.3,44.8C45.5,44.9 45.7,45 45.9,45.1C49.7,37.6 50.5,28.9 48.3,20.8L43.1,0Z" style="fill:rgb(102,36,16);fill-rule:nonzero;"/>
    </g>
</svg>
